<mxfile host="app.diagrams.net" agent="Mozilla/5.0 (Macintosh; Intel Mac OS X 10_15_7) AppleWebKit/605.1.15 (KHTML, like Gecko) Version/18.0.1 Safari/605.1.15" version="26.2.2">
  <diagram name="Página-1" id="v9d9D3l7eWMmDzoKNdTC">
    <mxGraphModel grid="1" page="1" gridSize="10" guides="1" tooltips="1" connect="1" arrows="1" fold="1" pageScale="1" pageWidth="827" pageHeight="1169" math="0" shadow="0">
      <root>
        <mxCell id="0" />
        <mxCell id="1" parent="0" />
        <mxCell id="hcSEqSE7mD0pmB-qtFE8-8" value="Gerenciamento de comunicação" style="swimlane;childLayout=stackLayout;resizeParent=1;resizeParentMax=0;startSize=20;html=1;" vertex="1" parent="1">
          <mxGeometry x="23" y="30" width="781" height="570" as="geometry" />
        </mxCell>
        <mxCell id="hcSEqSE7mD0pmB-qtFE8-9" value="Drone" style="swimlane;startSize=20;html=1;" vertex="1" parent="hcSEqSE7mD0pmB-qtFE8-8">
          <mxGeometry y="20" width="190" height="550" as="geometry" />
        </mxCell>
        <mxCell id="hcSEqSE7mD0pmB-qtFE8-14" value="Iniciar comunicação" style="rounded=1;whiteSpace=wrap;html=1;" vertex="1" parent="hcSEqSE7mD0pmB-qtFE8-9">
          <mxGeometry x="35" y="90" width="120" height="60" as="geometry" />
        </mxCell>
        <mxCell id="hcSEqSE7mD0pmB-qtFE8-60" style="edgeStyle=orthogonalEdgeStyle;rounded=0;orthogonalLoop=1;jettySize=auto;html=1;exitX=0.5;exitY=1;exitDx=0;exitDy=0;entryX=0.5;entryY=0;entryDx=0;entryDy=0;" edge="1" parent="hcSEqSE7mD0pmB-qtFE8-9" source="hcSEqSE7mD0pmB-qtFE8-25" target="hcSEqSE7mD0pmB-qtFE8-59">
          <mxGeometry relative="1" as="geometry" />
        </mxCell>
        <mxCell id="hcSEqSE7mD0pmB-qtFE8-25" value="Receber e executar comandos" style="rounded=1;whiteSpace=wrap;html=1;" vertex="1" parent="hcSEqSE7mD0pmB-qtFE8-9">
          <mxGeometry x="35" y="340" width="120" height="60" as="geometry" />
        </mxCell>
        <mxCell id="hcSEqSE7mD0pmB-qtFE8-29" value="" style="edgeStyle=orthogonalEdgeStyle;rounded=0;orthogonalLoop=1;jettySize=auto;html=1;" edge="1" parent="hcSEqSE7mD0pmB-qtFE8-9" source="hcSEqSE7mD0pmB-qtFE8-28" target="hcSEqSE7mD0pmB-qtFE8-14">
          <mxGeometry relative="1" as="geometry" />
        </mxCell>
        <mxCell id="hcSEqSE7mD0pmB-qtFE8-28" value="" style="shape=waypoint;sketch=0;fillStyle=solid;size=6;pointerEvents=1;points=[];fillColor=none;resizable=0;rotatable=0;perimeter=centerPerimeter;snapToPoint=1;fontSize=40;labelBorderColor=default;strokeWidth=11;" vertex="1" parent="hcSEqSE7mD0pmB-qtFE8-9">
          <mxGeometry x="85" y="40" width="20" height="20" as="geometry" />
        </mxCell>
        <mxCell id="hcSEqSE7mD0pmB-qtFE8-47" value="Falha ao estabelecer comunicação" style="text;html=1;align=center;verticalAlign=middle;whiteSpace=wrap;rounded=0;" vertex="1" parent="hcSEqSE7mD0pmB-qtFE8-9">
          <mxGeometry x="105" y="180" width="60" height="30" as="geometry" />
        </mxCell>
        <mxCell id="hcSEqSE7mD0pmB-qtFE8-59" value="" style="ellipse;html=1;shape=endState;fillColor=#000000;strokeColor=#ff0000;" vertex="1" parent="hcSEqSE7mD0pmB-qtFE8-9">
          <mxGeometry x="80" y="450" width="30" height="30" as="geometry" />
        </mxCell>
        <mxCell id="hcSEqSE7mD0pmB-qtFE8-10" value="&lt;font size=&quot;1&quot;&gt;Sistema de comunicação&lt;/font&gt;" style="swimlane;startSize=20;html=1;" vertex="1" parent="hcSEqSE7mD0pmB-qtFE8-8">
          <mxGeometry x="190" y="20" width="220" height="550" as="geometry" />
        </mxCell>
        <mxCell id="hcSEqSE7mD0pmB-qtFE8-40" style="edgeStyle=orthogonalEdgeStyle;rounded=0;orthogonalLoop=1;jettySize=auto;html=1;exitX=0.5;exitY=1;exitDx=0;exitDy=0;entryX=0.5;entryY=0;entryDx=0;entryDy=0;" edge="1" parent="hcSEqSE7mD0pmB-qtFE8-10" source="hcSEqSE7mD0pmB-qtFE8-16" target="hcSEqSE7mD0pmB-qtFE8-39">
          <mxGeometry relative="1" as="geometry" />
        </mxCell>
        <mxCell id="hcSEqSE7mD0pmB-qtFE8-16" value="Estabelecer comunicação segura" style="rounded=1;whiteSpace=wrap;html=1;" vertex="1" parent="hcSEqSE7mD0pmB-qtFE8-10">
          <mxGeometry x="50" y="90" width="120" height="60" as="geometry" />
        </mxCell>
        <mxCell id="hcSEqSE7mD0pmB-qtFE8-24" value="Transmitir comandos em tempo real" style="rounded=1;whiteSpace=wrap;html=1;" vertex="1" parent="hcSEqSE7mD0pmB-qtFE8-10">
          <mxGeometry x="50" y="340" width="120" height="60" as="geometry" />
        </mxCell>
        <mxCell id="hcSEqSE7mD0pmB-qtFE8-37" value="Iniciar protocolo de fallback (enviar os dados para a mina terrestre mais próxima)" style="rounded=1;whiteSpace=wrap;html=1;" vertex="1" parent="hcSEqSE7mD0pmB-qtFE8-10">
          <mxGeometry x="50" y="430" width="120" height="70" as="geometry" />
        </mxCell>
        <mxCell id="hcSEqSE7mD0pmB-qtFE8-48" style="edgeStyle=orthogonalEdgeStyle;rounded=0;orthogonalLoop=1;jettySize=auto;html=1;exitX=0;exitY=0.5;exitDx=0;exitDy=0;entryX=0;entryY=0.5;entryDx=0;entryDy=0;" edge="1" parent="hcSEqSE7mD0pmB-qtFE8-10" source="hcSEqSE7mD0pmB-qtFE8-39" target="hcSEqSE7mD0pmB-qtFE8-37">
          <mxGeometry relative="1" as="geometry">
            <mxPoint x="21" y="379.9999999999999" as="targetPoint" />
            <Array as="points">
              <mxPoint x="100" y="200" />
              <mxPoint x="21" y="200" />
              <mxPoint x="21" y="460" />
            </Array>
          </mxGeometry>
        </mxCell>
        <mxCell id="hcSEqSE7mD0pmB-qtFE8-53" style="edgeStyle=orthogonalEdgeStyle;rounded=0;orthogonalLoop=1;jettySize=auto;html=1;exitX=0.5;exitY=1;exitDx=0;exitDy=0;entryX=0.5;entryY=0;entryDx=0;entryDy=0;" edge="1" parent="hcSEqSE7mD0pmB-qtFE8-10" source="hcSEqSE7mD0pmB-qtFE8-39" target="hcSEqSE7mD0pmB-qtFE8-49">
          <mxGeometry relative="1" as="geometry" />
        </mxCell>
        <mxCell id="hcSEqSE7mD0pmB-qtFE8-39" value="" style="rhombus;whiteSpace=wrap;html=1;" vertex="1" parent="hcSEqSE7mD0pmB-qtFE8-10">
          <mxGeometry x="100" y="190" width="20" height="20" as="geometry" />
        </mxCell>
        <mxCell id="hcSEqSE7mD0pmB-qtFE8-49" value="Enviar dados para a central de controle" style="rounded=1;whiteSpace=wrap;html=1;" vertex="1" parent="hcSEqSE7mD0pmB-qtFE8-10">
          <mxGeometry x="50" y="260" width="120" height="60" as="geometry" />
        </mxCell>
        <mxCell id="hcSEqSE7mD0pmB-qtFE8-46" value="&lt;font&gt;Sucesso&lt;/font&gt;" style="text;html=1;align=center;verticalAlign=middle;whiteSpace=wrap;rounded=0;rotation=0;" vertex="1" parent="hcSEqSE7mD0pmB-qtFE8-10">
          <mxGeometry x="86" y="220" width="99" height="30" as="geometry" />
        </mxCell>
        <mxCell id="hcSEqSE7mD0pmB-qtFE8-54" value="&lt;font&gt;Falha&lt;/font&gt;" style="text;html=1;align=center;verticalAlign=middle;whiteSpace=wrap;rounded=0;" vertex="1" parent="hcSEqSE7mD0pmB-qtFE8-10">
          <mxGeometry x="31" y="178" width="60" height="30" as="geometry" />
        </mxCell>
        <mxCell id="hcSEqSE7mD0pmB-qtFE8-11" value="Central de controle" style="swimlane;startSize=20;html=1;" vertex="1" parent="hcSEqSE7mD0pmB-qtFE8-8">
          <mxGeometry x="410" y="20" width="191" height="550" as="geometry" />
        </mxCell>
        <mxCell id="hcSEqSE7mD0pmB-qtFE8-23" style="edgeStyle=orthogonalEdgeStyle;rounded=0;orthogonalLoop=1;jettySize=auto;html=1;exitX=0.5;exitY=1;exitDx=0;exitDy=0;entryX=0.5;entryY=0;entryDx=0;entryDy=0;" edge="1" parent="hcSEqSE7mD0pmB-qtFE8-11" source="hcSEqSE7mD0pmB-qtFE8-18" target="hcSEqSE7mD0pmB-qtFE8-19">
          <mxGeometry relative="1" as="geometry" />
        </mxCell>
        <mxCell id="hcSEqSE7mD0pmB-qtFE8-18" value="Receber dados" style="rounded=1;whiteSpace=wrap;html=1;" vertex="1" parent="hcSEqSE7mD0pmB-qtFE8-11">
          <mxGeometry x="35.5" y="260" width="120" height="60" as="geometry" />
        </mxCell>
        <mxCell id="hcSEqSE7mD0pmB-qtFE8-19" value="Enviar comandos para o drone" style="rounded=1;whiteSpace=wrap;html=1;" vertex="1" parent="hcSEqSE7mD0pmB-qtFE8-11">
          <mxGeometry x="35.5" y="340" width="120" height="60" as="geometry" />
        </mxCell>
        <mxCell id="hcSEqSE7mD0pmB-qtFE8-20" style="edgeStyle=orthogonalEdgeStyle;rounded=0;orthogonalLoop=1;jettySize=auto;html=1;exitX=1;exitY=0.5;exitDx=0;exitDy=0;entryX=0;entryY=0.5;entryDx=0;entryDy=0;" edge="1" parent="hcSEqSE7mD0pmB-qtFE8-8" source="hcSEqSE7mD0pmB-qtFE8-14" target="hcSEqSE7mD0pmB-qtFE8-16">
          <mxGeometry relative="1" as="geometry">
            <Array as="points">
              <mxPoint x="211" y="140" />
              <mxPoint x="211" y="140" />
            </Array>
          </mxGeometry>
        </mxCell>
        <mxCell id="hcSEqSE7mD0pmB-qtFE8-26" style="edgeStyle=orthogonalEdgeStyle;rounded=0;orthogonalLoop=1;jettySize=auto;html=1;exitX=0;exitY=0.5;exitDx=0;exitDy=0;entryX=1;entryY=0.5;entryDx=0;entryDy=0;" edge="1" parent="hcSEqSE7mD0pmB-qtFE8-8" source="hcSEqSE7mD0pmB-qtFE8-19" target="hcSEqSE7mD0pmB-qtFE8-24">
          <mxGeometry relative="1" as="geometry" />
        </mxCell>
        <mxCell id="hcSEqSE7mD0pmB-qtFE8-27" style="edgeStyle=orthogonalEdgeStyle;rounded=0;orthogonalLoop=1;jettySize=auto;html=1;exitX=0;exitY=0.5;exitDx=0;exitDy=0;entryX=1;entryY=0.5;entryDx=0;entryDy=0;" edge="1" parent="hcSEqSE7mD0pmB-qtFE8-8" source="hcSEqSE7mD0pmB-qtFE8-24" target="hcSEqSE7mD0pmB-qtFE8-25">
          <mxGeometry relative="1" as="geometry" />
        </mxCell>
        <mxCell id="hcSEqSE7mD0pmB-qtFE8-38" value="Estação terrestre" style="swimlane;startSize=20;html=1;" vertex="1" parent="hcSEqSE7mD0pmB-qtFE8-8">
          <mxGeometry x="601" y="20" width="180" height="550" as="geometry" />
        </mxCell>
        <mxCell id="hcSEqSE7mD0pmB-qtFE8-55" value="Enviar dados para a central de controle" style="rounded=1;whiteSpace=wrap;html=1;" vertex="1" parent="hcSEqSE7mD0pmB-qtFE8-38">
          <mxGeometry x="30" y="435" width="120" height="60" as="geometry" />
        </mxCell>
        <mxCell id="hcSEqSE7mD0pmB-qtFE8-56" style="edgeStyle=orthogonalEdgeStyle;rounded=0;orthogonalLoop=1;jettySize=auto;html=1;exitX=1;exitY=0.5;exitDx=0;exitDy=0;entryX=0;entryY=0.5;entryDx=0;entryDy=0;" edge="1" parent="hcSEqSE7mD0pmB-qtFE8-8" source="hcSEqSE7mD0pmB-qtFE8-49" target="hcSEqSE7mD0pmB-qtFE8-18">
          <mxGeometry relative="1" as="geometry" />
        </mxCell>
        <mxCell id="hcSEqSE7mD0pmB-qtFE8-57" style="edgeStyle=orthogonalEdgeStyle;rounded=0;orthogonalLoop=1;jettySize=auto;html=1;exitX=1;exitY=0.5;exitDx=0;exitDy=0;entryX=0;entryY=0.5;entryDx=0;entryDy=0;" edge="1" parent="hcSEqSE7mD0pmB-qtFE8-8" source="hcSEqSE7mD0pmB-qtFE8-37" target="hcSEqSE7mD0pmB-qtFE8-55">
          <mxGeometry relative="1" as="geometry" />
        </mxCell>
        <mxCell id="hcSEqSE7mD0pmB-qtFE8-58" style="edgeStyle=orthogonalEdgeStyle;rounded=0;orthogonalLoop=1;jettySize=auto;html=1;exitX=0.5;exitY=0;exitDx=0;exitDy=0;entryX=1;entryY=0.5;entryDx=0;entryDy=0;" edge="1" parent="hcSEqSE7mD0pmB-qtFE8-8" source="hcSEqSE7mD0pmB-qtFE8-55" target="hcSEqSE7mD0pmB-qtFE8-18">
          <mxGeometry relative="1" as="geometry" />
        </mxCell>
      </root>
    </mxGraphModel>
  </diagram>
</mxfile>
